<?xml version="1.0" encoding="utf-8"?>
<!-- Generator: Adobe Illustrator 27.7.0, SVG Export Plug-In . SVG Version: 6.00 Build 0)  -->
<svg version="1.1" id="Layer_1" xmlns="http://www.w3.org/2000/svg" xmlns:xlink="http://www.w3.org/1999/xlink" x="0px" y="0px"
	 viewBox="0 0 973 431" style="enable-background:new 0 0 973 431;" xml:space="preserve">
<style type="text/css">
	.st0{fill:url(#Green_Gradient_00000153682800625142125300000011284289241510484125_);}
	.st1{fill:none;}
	.st2{fill-rule:evenodd;clip-rule:evenodd;fill:#FFFFFF;}
	.st3{fill:url(#Blue_Gradient_00000140007301085355272110000008157671665430630289_);}
	.st4{fill:#FFFFFF;}
	.st5{fill:url(#Blue_Gradient_00000101820508226871132660000014919743209987351199_);}
	.st6{font-family:'MyriadPro-Regular';}
	.st7{font-size:14px;}
	.st8{font-family:'ArialMT';}
	.st9{font-size:18px;}
	.st10{fill:#3B48CC;}
	.st11{fill:url(#Blue_Gradient_00000002362912745719060890000013287064900841597857_);}
	.st12{enable-background:new    ;}
	.st13{fill:none;stroke:#000000;stroke-width:2;stroke-miterlimit:10;}
</style>
<g id="Working">
	
		<linearGradient id="Green_Gradient_00000063599048703683580850000010310220572127371659_" gradientUnits="userSpaceOnUse" x1="656.8784" y1="-366.2616" x2="656.8784" y2="-516.2616" gradientTransform="matrix(0.7071 0.7071 -0.7071 0.7071 -5.6683 -87.3377)">
		<stop  offset="0" style="stop-color:#2E27AD"/>
		<stop  offset="1" style="stop-color:#527FFF"/>
	</linearGradient>
	
		<rect id="Green_Gradient" x="733.3" y="27.6" style="fill:url(#Green_Gradient_00000063599048703683580850000010310220572127371659_);" width="75" height="75"/>
	<rect x="744.3" y="37.6" class="st1" width="54" height="56"/>
	<rect x="733.3" y="27.6" class="st1" width="75" height="75"/>
	<g id="Page-1">
		<g id="White">
			<path id="Amazon-Managed-Apache-Service_64_White" class="st2" d="M798.3,53.6l-3.2,0.8l2.5,2.8c-0.2,0.4-0.4,0.7-0.8,0.9
				c-0.3,0.3-0.7,0.4-1,0.5l-2-3.4l-2,3.4c-0.4-0.1-0.7-0.2-1.1-0.4c-0.3-0.2-0.6-0.5-0.8-0.9l2.5-2.8l-3.1-0.8c0-0.1,0-0.3,0-0.4
				c0-0.6,0.3-1.2,0.7-1.7l3,1.5l-0.4-3.6c0.4-0.2,0.8-0.2,1.2-0.2s0.8,0.1,1.2,0.2l-0.4,3.6l3-1.5C798.2,52,798.5,52.8,798.3,53.6z
				 M783.2,76.9c1.7,0,3.4-0.3,5-0.9v1.9c-1.6,0.7-3.4,1.1-5.1,1.1c-3.2,0-5.6-0.9-7.2-2.7c-1.6-1.8-2.5-4.5-2.5-8s0.8-6.2,2.5-8
				s4.1-2.8,7.3-2.8c1.7,0,3.3,0.3,4.8,1v1.9c-1.5-0.5-3.1-0.8-4.7-0.8c-2.6,0-4.5,0.7-5.6,2c-1.2,1.3-1.8,3.5-1.8,6.4v0.5
				c0,2.8,0.6,4.9,1.8,6.3C778.9,76.2,780.7,76.9,783.2,76.9L783.2,76.9z M761.3,37.6c10.8,0,18,3.1,18,6s-7.2,6-18,6s-17-3-17-6
				S750.7,37.6,761.3,37.6z M779.3,86.6c0,2.9-7.2,6-18,6c-8.4,0-17-2.2-17-6V76.5c3,2.6,9.1,4.1,17,4.1c3.8,0,7.6-0.4,11.2-1.3
				l-0.5-1.9c-3.5,0.8-7.1,1.2-10.8,1.2c-8.4,0-17-2.2-17-6V62.4c3,2.6,9.2,4.2,17,4.2c3.8,0,7.6-0.4,11.2-1.3l-0.5-1.9
				c-3.5,0.8-7.1,1.2-10.8,1.2c-10.6,0-17-3-17-6V47.4c3,2.6,9.2,4.2,17,4.2c7.3,0,14.6-1.5,18-4.3v3.3h2v-7c0-5.2-10.1-8-20-8
				c-11.2,0-19,3.3-19,8v43c0,4.8,7.6,8,19,8c9.9,0,20-2.8,20-8v-2h-2v2H779.3z"/>
		</g>
	</g>
</g>
<g id="Reference">
	
		<linearGradient id="Blue_Gradient_00000129192268246501729750000000342719723210032829_" gradientUnits="userSpaceOnUse" x1="-29.6636" y1="-386.2326" x2="-29.6636" y2="-237.2327" gradientTransform="matrix(-0.7071 -0.7071 0.7071 -0.7071 269.4583 -175.3923)">
		<stop  offset="0" style="stop-color:#2E27AD"/>
		<stop  offset="1" style="stop-color:#527FFF"/>
	</linearGradient>
	
		<rect id="Blue_Gradient" x="32.7" y="28.8" style="fill:url(#Blue_Gradient_00000129192268246501729750000000342719723210032829_);" width="74.5" height="74.5"/>
	<g id="Icon_Test">
		<path class="st4" d="M57.9,58.1c-7.7,0-15.9-2.3-15.9-6.7s8.2-6.7,15.9-6.7s15.9,2.3,15.9,6.7S65.6,58.1,57.9,58.1z M57.9,46.8
			C50,46.8,44,49.3,44,51.5s6,4.7,13.9,4.7s13.9-2.5,13.9-4.7S65.8,46.8,57.9,46.8z"/>
		<rect x="71.8" y="51.8" class="st4" width="2" height="16.9"/>
		<path class="st4" d="M57.9,90.4c-7.7,0-15.9-2.3-15.9-6.6v-32h2v32c0,2.2,6,4.6,13.9,4.6s13.9-2.4,13.9-4.6v-3.2h2v3.2
			C73.8,88.1,65.6,90.4,57.9,90.4z"/>
		<path class="st4" d="M57.9,69.4c-7.7,0-15.9-2.3-15.9-6.7h2c0,2.2,6,4.7,13.9,4.7s13.9-2.5,13.9-4.7h2
			C73.8,67,65.6,69.4,57.9,69.4z"/>
		<path class="st4" d="M58,80.3c-7.7,0-15.9-2.3-15.9-6.7h2c0,2.2,6,4.7,13.9,4.7c3.3,0,6.5-0.4,9.6-1.4l0.6,1.9
			C64.9,79.8,61.4,80.3,58,80.3z"/>
		<path class="st4" d="M81.2,91.3c-0.5,0-1-0.4-1-1c0-6.8-7.8-14.6-14.7-14.6c-0.5,0-1-0.4-1-1c0-0.5,0.4-1,1-1
			c6.8,0,14.7-7.8,14.7-14.7c0-0.5,0.4-1,1-1c0.5,0,1,0.4,1,1c0,6.8,7.8,14.7,14.7,14.7c0.5,0,1,0.4,1,1c0,0.5-0.4,1-1,1
			c-6.9,0-14.7,7.8-14.7,14.6C82.2,90.8,81.8,91.3,81.2,91.3z M70.4,74.6c4.9,2.1,8.7,5.9,10.8,10.8c2.1-4.9,5.9-8.7,10.8-10.8
			c-4.8-2-8.7-5.9-10.8-10.8C79.2,68.7,75.3,72.5,70.4,74.6z"/>
		<rect x="85.8" y="50.8" class="st4" width="2" height="6"/>
		<rect x="83.8" y="52.8" class="st4" width="6" height="2"/>
		<rect x="74.8" y="40.8" class="st4" width="2" height="6"/>
		<rect x="72.8" y="42.8" class="st4" width="6" height="2"/>
	</g>
</g>
<g id="Reference_1_">
	
		<linearGradient id="Blue_Gradient_00000113321014379193075920000011199191689890978983_" gradientUnits="userSpaceOnUse" x1="132.77" y1="583.23" x2="238.83" y2="477.17" gradientTransform="matrix(1 0 0 1 0 -464)">
		<stop  offset="0" style="stop-color:#2E27AD"/>
		<stop  offset="1" style="stop-color:#527FFF"/>
	</linearGradient>
	
		<rect id="Blue_Gradient_1_" x="148.3" y="28.7" style="fill:url(#Blue_Gradient_00000113321014379193075920000011199191689890978983_);" width="75" height="75"/>
	<g id="Icon_Test_1_">
		<path class="st4" d="M198.6,69.2l-6.6,6.6c1.2-0.3,2.3-0.8,3.4-1.4c0.6,0.4,1.1,1.1,1.2,1.8c0,1.8-3.9,3.8-9.6,4.6
			c-1.8,0.2-3.6,0.4-5.4,0.4h-1c-8.1-0.2-14-2.7-14-5c0.1-0.7,0.5-1.4,1.2-1.8c3.1,1.8,8.2,2.8,13.8,2.8h0.1l0.6-2
			c-0.2,0-0.4,0-0.7,0c-5.5,0-10.6-1.1-13.3-2.8c-1.1-0.7-1.7-1.5-1.7-2.2v-4.6c3.1,2.3,9.2,3.6,15,3.6c0.8,0,1.6,0,2.4-0.1l0.6-2
			c-1,0.1-1.9,0.1-2.9,0.1c-8.6,0-15-2.6-15-5c0.1-0.7,0.5-1.4,1.2-1.8c2.8,1.6,7,2.5,11.8,2.7l0.1-2c-4.7-0.2-9-1.2-11.4-2.8
			c-1.1-0.7-1.7-1.5-1.7-2.2v-4.6c3.1,2.3,9.2,3.6,15,3.6h0.2l1.1-2h-1.3c-8.6,0-15-2.6-15-5s6.4-5,15-5c2.9,0,5.8,0.3,8.6,1h5.5
			c-3-1.8-8.2-3-14.1-3c-8.2,0-17,2.4-17,7v8c0.1,1.2,0.6,2.2,1.5,3c-0.9,0.7-1.5,1.8-1.5,3v8c0,1.2,0.6,2.3,1.5,3
			c-0.9,0.7-1.5,1.8-1.5,3v8c0,0.1,0,0.1,0,0.2c0.3,4.4,8.9,6.8,17,6.8s16.7-2.4,17-6.8c0-0.1,0-0.1,0-0.2v-8c0-1.2-0.6-2.3-1.5-3
			c0.9-0.7,1.5-1.8,1.5-3v-0.9H198.6z M196.6,84.2c0,2.4-6.4,5-15,5s-15-2.6-15-5v-4.6c3.1,2.3,9.2,3.5,15,3.5s11.9-1.2,15-3.5V84.2
			z"/>
		<circle class="st4" cx="169.6" cy="56.2" r="1.2"/>
		<circle class="st4" cx="169.6" cy="70.2" r="1.2"/>
		<circle class="st4" cx="169.6" cy="84.2" r="1.2"/>
		<path class="st4" d="M184,80.2c-0.2,0-0.3-0.1-0.5-0.1c-0.4-0.2-0.6-0.7-0.5-1.1l5.6-18.7h-5.7c-0.6,0-1-0.4-1-1
			c0-0.2,0-0.3,0.1-0.5l6-12c0.2-0.3,0.5-0.5,0.9-0.5h13c0.6,0,1,0.4,1,0.9c0,0.1,0,0.2,0,0.4l-2.6,7.7h5.6c0.6,0,1,0.5,1,1
			c0,0.3-0.1,0.5-0.3,0.7l-22,23C184.6,80.1,184.3,80.2,184,80.2z M184.7,58.2h5.4c0.3,0,0.6,0.1,0.8,0.4s0.2,0.6,0.2,0.9l-4.8,16
			l17.4-18.3H199c-0.6,0-1-0.4-1.1-0.9c0-0.1,0-0.3,0.1-0.4l2.6-7.7h-11L184.7,58.2z"/>
	</g>
</g>
<rect x="21" y="136.5" class="st1" width="97" height="84.7"/>
<text transform="matrix(1 0 0 1 21.0013 146.4399)"><tspan x="0" y="0" class="st6 st7">Referential </tspan><tspan x="0" y="16.8" class="st6 st7">integrity, ACID </tspan><tspan x="0" y="33.6" class="st6 st7">transactions, </tspan><tspan x="0" y="50.4" class="st6 st7">schema on write</tspan></text>
<text transform="matrix(1 0 0 1 29.9523 121.0483)" class="st8 st9">Relational</text>
<rect x="148.2" y="125.5" class="st1" width="86" height="22"/>
<text transform="matrix(1 0 0 1 149.5178 121.483)" class="st8 st9">Key Value</text>
<g id="Reference_2_">
	<rect id="Blue_Light_BG" x="261.6" y="28.6" class="st10" width="75" height="75"/>
	<g id="Product_Icon">
		<path class="st4" d="M301.7,79.9h-1.3c-0.6,0-1-0.4-1-1V56.6c0-0.6,0.4-1,1-1h11.8c0.3,0,0.6,0.1,0.7,0.3l3,3.6l-1.4,1.3l-2.8-3.2
			h-10.4v20.3h0.3L301.7,79.9L301.7,79.9z"/>
		<path class="st4" d="M319.9,83.5h-16.2c-0.6,0-1-0.4-1-1V60.2c0-0.6,0.4-1,1-1h12.5c0.3,0,0.5,0.1,0.7,0.3l3.7,3.7
			c0.2,0.2,0.3,0.4,0.3,0.7v18.6C320.9,83,320.4,83.4,319.9,83.5z M304.7,81.6h14.2V64.3l-3.1-3.1h-11.1V81.6z"/>
		<path class="st4" d="M319.9,65.9h-4.7c-0.6,0-1-0.4-1-1v-4.7h1.9v3.7h3.7L319.9,65.9z"/>
		<path class="st4" d="M311,78.3h-0.6c-0.5,0-1-0.2-1.3-0.6c-0.4-0.6-0.5-1.3-0.4-2c-0.1-1.8-1.1-2.1-1.1-2.1
			c-0.5-0.2-0.8-0.8-0.6-1.3c0.1-0.3,0.3-0.5,0.6-0.6c0.1,0,1-0.4,1-2.1c0-1.1,0.5-2.2,1.7-2.3h0.7v1.9h-0.3c0,0.1,0,0.2,0,0.3
			c0.1,1.1-0.3,2.2-1,3.1c0.7,0.9,1.1,2,1,3.1c0,0.1,0,0.1,0,0.2s0,0.3,0,0.4h0.4L311,78.3z"/>
		<path class="st4" d="M313.7,78.3v-1.9h0.4c0-0.1,0-0.2,0-0.3c-0.1-1.1,0.3-2.2,1-3.1c-0.7-0.9-1.1-2-1-3.1c0-0.1,0-0.1,0-0.2
			s0-0.3,0-0.4h-0.4v-1.9h0.6c0.5,0,1,0.2,1.3,0.6c0.4,0.6,0.5,1.3,0.4,2c0,1.7,1,2,1,2.1c0.4,0.1,0.7,0.5,0.7,1
			c0,0.4-0.3,0.8-0.7,0.9c-0.1,0-1,0.4-1,2.1c0,1.1-0.5,2.2-1.7,2.2L313.7,78.3z"/>
		<path class="st4" d="M293.8,55.8c-8,0-16.5-2.5-16.5-7s8.5-7,16.5-7s16.5,2.5,16.5,7S301.8,55.8,293.8,55.8z M293.8,43.7
			c-8.6,0-14.6,2.7-14.6,5.1c0,2.4,6,5.1,14.6,5.1s14.6-2.7,14.6-5.1C308.4,46.4,302.4,43.7,293.8,43.7z"/>
		<rect x="308.4" y="48.8" class="st4" width="1.9" height="6.1"/>
		<path class="st4" d="M293.8,90.4c-8,0-16.5-2.5-16.5-7V48.8h1.9v34.6c0,2.4,6,5.1,14.6,5.1s14.6-2.7,14.6-5.1h1.9
			C310.3,88,301.8,90.4,293.8,90.4z"/>
		<path class="st4" d="M293.9,67.9c-9.4,0-16.5-3-16.5-7h1.9c0,2.4,6,5.1,14.5,5.1c1.4,0,2.9-0.1,4.3-0.2l0.2,1.9
			C296.9,67.8,295.4,67.9,293.9,67.9z"/>
		<path class="st4" d="M293.9,79.8c-9.4,0-16.5-3-16.5-7h1.9c0,2.4,6,5.1,14.5,5.1c1.4,0,2.9-0.1,4.3-0.2l0.2,1.9
			C296.9,79.8,295.4,79.8,293.9,79.8z"/>
	</g>
</g>
<rect x="267.9" y="125.5" class="st1" width="86" height="22"/>
<text transform="matrix(1 0 0 1 259.0873 121.3916)" class="st8 st9">Document</text>
<g id="Reference_3_">
	<rect id="Blue_Light_BG_1_" x="375.5" y="30" class="st10" width="75" height="75"/>
	<g id="Product_Icon_1_">
		<path class="st4" d="M413,57c-6.7,0-13.5,1.8-13.5,5.1v22.8c0,3.3,6.8,5.1,13.5,5.1s13.5-1.8,13.5-5.1V62.1
			C426.5,58.7,419.7,57,413,57z M413,88c-7.4,0-11.5-2-11.5-3.1v-4.8c2.5,1.5,7,2.3,11.5,2.3s9-0.8,11.5-2.3v4.8
			C424.5,86,420.4,88,413,88z M413,80.4c-7.4,0-11.5-2-11.5-3.1v-4.8c2.5,1.5,7,2.3,11.5,2.3s9-0.8,11.5-2.3v4.8
			C424.5,78.3,420.4,80.4,413,80.4z M413,72.8c-7.4,0-11.5-2-11.5-3.1v-4.8c2.5,1.5,7,2.3,11.5,2.3s9-0.8,11.5-2.3v4.8
			C424.5,70.7,420.4,72.8,413,72.8z M413,65.2c-7.4,0-11.5-2.1-11.5-3.1s4-3.1,11.5-3.1s11.5,2.1,11.5,3.1S420.4,65.2,413,65.2z"/>
		<path class="st4" d="M437.5,49.2c0.6,0,1-0.4,1-1V46c0-0.6-0.4-1-1-1h-49c-0.6,0-1,0.4-1,1v2.2c0,0.6,0.4,1,1,1
			c1.2,0.1,2.1,1.2,2,2.4c-0.1,1.1-0.9,1.9-2,2c-0.6,0-1,0.4-1,1V72c0,0.6,0.4,1,1,1h9v-2h-4v-1h4v-2h-5c-0.6,0-1,0.4-1,1v2h-2V55.5
			c2.3-0.7,3.5-3.1,2.8-5.3c-0.4-1.4-1.5-2.4-2.8-2.8v-0.3h47v0.3c-2.2,0.7-3.5,3.1-2.8,5.4c0.4,1.3,1.4,2.3,2.8,2.8v15.5h-1v-2
			c0-0.6-0.4-1-1-1h-6v2h5v1h-5v2h9c0.6,0,1-0.4,1-1V54.6c0-0.6-0.4-1-1-1c-1.2-0.1-2.1-1.2-1.9-2.5
			C435.7,50.1,436.5,49.3,437.5,49.2z"/>
		<path class="st4" d="M412.5,55v-5c0-0.6-0.4-1-1-1h-7c-0.6,0-1,0.4-1,1v6h2v-5h5v4H412.5z"/>
		<path class="st4" d="M422.5,56v-6c0-0.6-0.4-1-1-1h-7c-0.6,0-1,0.4-1,1v5h2v-4h5v5H422.5z"/>
		<path class="st4" d="M428.5,64v2h3c0.6,0,1-0.4,1-1V50c0-0.6-0.4-1-1-1h-7c-0.6,0-1,0.4-1,1v7h2v-6h5v13H428.5z"/>
		<path class="st4" d="M395.5,51h5v6h2v-7c0-0.6-0.4-1-1-1h-7c-0.6,0-1,0.4-1,1v15c0,0.6,0.4,1,1,1h3v-2h-2V51z"/>
	</g>
</g>
<rect x="369.9" y="124.5" class="st1" width="106.1" height="22"/>
<text transform="matrix(1 0 0 1 373.2278 121.7414)" class="st8 st9">In memory</text>
<g id="Reference_4_">
	<rect id="Blue_Light_BG_2_" x="486.5" y="29.4" class="st10" width="75" height="75"/>
	<g id="Product_Icon_2_">
		<path class="st4" d="M531,61.8c0.8,0.4,1.5,1.1,2,1.9V49.1c0-4.7-8.8-7.2-17-7.2s-17,2.5-17,7.2v35.6c0,4.7,8.8,7.2,17,7.2
			s17-2.5,17-7.2v-4.8h-2v4.8c0,2.5-6.2,5.2-15,5.2s-15-2.8-15-5.2v-7.4c3,2.4,9.2,3.7,15,3.7c1.7,0,3.4-0.1,5.1-0.3
			c-0.4-0.6-0.7-1.2-0.9-1.9c-1.4,0.1-2.8,0.2-4.2,0.2c-8.8,0-15-2.8-15-5.2l0,0v-8.7c3,2.4,9.2,3.7,15,3.7c3,0,6-0.3,8.9-1
			c-0.3-0.6-0.4-1.2-0.4-1.8v-0.1c-2.8,0.7-5.6,1-8.5,1c-8.8,0-15-2.8-15-5.2l0,0v-8.9c3.1,2.4,9.2,3.7,15,3.7s11.9-1.3,15-3.7v8.9
			C531,61.7,531,61.7,531,61.8z M516,54.3c-8.8,0-15-2.8-15-5.2s6.2-5.2,15-5.2s15,2.8,15,5.2S524.8,54.3,516,54.3L516,54.3z
			 M546.5,79.9c-1.4,0-2.5,1.1-2.5,2.5c0,0.2,0,0.4,0.1,0.5l-3.3,2.1c-0.5-0.5-1.2-0.9-1.9-1l-0.2-4.5c2.8-0.7,4.5-3.5,3.8-6.2
			c-0.2-1-0.8-1.9-1.6-2.6l3.1-5.3c0.3,0.1,0.7,0.2,1,0.2c1.9,0,3.5-1.6,3.5-3.5s-1.6-3.5-3.5-3.5s-3.5,1.6-3.5,3.5
			c0,0.8,0.3,1.6,0.8,2.2l-3.2,5.3c-0.5-0.2-1.1-0.3-1.7-0.2c-1,0-2,0.3-2.8,0.8l-3.3-3.4c0.1-0.3,0.2-0.6,0.2-1
			c0-1.4-1.1-2.5-2.5-2.5s-2.5,1.1-2.5,2.5s1.1,2.5,2.5,2.5c0.3,0,0.6-0.1,0.9-0.2l3.3,3.4c-0.6,0.9-0.9,1.9-0.9,2.9l0,0l-3.9,0.9
			c-1.1-1.6-3.3-1.9-4.9-0.8c-1.6,1.1-1.9,3.3-0.8,4.9c1.1,1.6,3.3,1.9,4.9,0.8c0.9-0.7,1.5-1.7,1.5-2.9v-0.1l3.7-0.8
			c0.7,1.7,2.2,2.8,4,3.1l0.2,4.4c-2.1,0.6-3.3,2.9-2.7,5s2.9,3.3,5,2.7c1.7-0.5,2.9-2.1,2.8-3.8c0-0.4-0.1-0.8-0.2-1.2l3.4-2.1
			c0.4,0.2,0.8,0.3,1.3,0.3c1.4,0,2.5-1.1,2.5-2.5S547.9,79.9,546.5,79.9z M545,60.6c0.8,0,1.5,0.7,1.5,1.5s-0.7,1.5-1.5,1.5
			s-1.5-0.7-1.5-1.5S544.2,60.6,545,60.6L545,60.6z M529,66.4c-0.3,0-0.5-0.2-0.5-0.5s0.2-0.5,0.5-0.5s0.5,0.2,0.5,0.5
			S529.3,66.4,529,66.4z M525.5,78.9c-0.8,0-1.5-0.7-1.5-1.5s0.7-1.5,1.5-1.5s1.5,0.7,1.5,1.5S526.3,78.9,525.5,78.9z M534.2,74.5
			c0-1.8,1.4-3.2,3.2-3.2s3.2,1.4,3.2,3.2s-1.4,3.2-3.2,3.2l0,0C535.6,77.7,534.2,76.3,534.2,74.5z M538,89.9c-1.1,0-2-0.9-2-2
			s0.9-2,2-2s2,0.9,2,2S539.1,89.9,538,89.9z M546.5,82.9c-0.3,0-0.5-0.2-0.5-0.5s0.2-0.5,0.5-0.5s0.5,0.2,0.5,0.5
			S546.8,82.9,546.5,82.9z"/>
	</g>
</g>
<rect x="466.3" y="125.5" class="st1" width="106.1" height="22"/>
<text transform="matrix(1 0 0 1 497.172 121.1914)" class="st8 st9">Graph</text>
<g id="Reference_5_">
	
		<linearGradient id="Blue_Gradient_00000038384356996469105220000001855134087168038034_" gradientUnits="userSpaceOnUse" x1="592.8582" y1="583.4568" x2="698.9282" y2="477.3867" gradientTransform="matrix(1 0 0 1 0 -464)">
		<stop  offset="0" style="stop-color:#2E27AD"/>
		<stop  offset="1" style="stop-color:#527FFF"/>
	</linearGradient>
	
		<rect id="Blue_Gradient_2_" x="608.4" y="28.9" style="fill:url(#Blue_Gradient_00000038384356996469105220000001855134087168038034_);" width="75" height="75"/>
	<g id="Icon_Test_2_">
		<path class="st4" d="M640.1,55.6c-9.3,0-16.6-3-16.6-6.9s7.3-6.9,16.6-6.9c9.3,0,16.6,3,16.6,6.9S649.4,55.6,640.1,55.6z
			 M640.1,43.3c-8.9,0-15.1,2.9-15.1,5.4s6.2,5.4,15.1,5.4s15.1-2.9,15.1-5.4S649,43.3,640.1,43.3z"/>
		<rect x="655.2" y="48.7" class="st4" width="1.5" height="11.8"/>
		<path class="st4" d="M640.1,91c-9.3,0-16.6-3-16.6-6.9V48.7h1.5v35.4c0,2.6,6.2,5.4,15.1,5.4s15.1-2.9,15.1-5.4v-3.4h1.5v3.4
			C656.7,88,649.4,91,640.1,91z"/>
		<path class="st4" d="M640.1,68c-9.3,0-16.6-3-16.6-6.9h1.5c0,2.6,6.2,5.4,15.1,5.4c1.5,0,3-0.1,4.4-0.2l0.2,1.5
			C643.2,67.9,641.7,68,640.1,68z"/>
		<path class="st4" d="M640.1,80.2c-9.3,0-16.6-3.1-16.6-6.9h1.5c0,2.6,6.2,5.4,15.1,5.4c1.5,0,3-0.1,4.4-0.2l0.2,1.5
			C643.2,80.1,641.7,80.2,640.1,80.2z"/>
		<path class="st4" d="M667.2,80h-20.4c-0.4,0-0.7-0.3-0.8-0.7l0,0V59.7h1.5v18.8h19.6V80H667.2z"/>
		
			<rect x="648.5" y="73.4" transform="matrix(0.7071 -0.7071 0.7071 0.7071 137.9581 481.4019)" class="st4" width="3.1" height="1.5"/>
		<polygon class="st4" points="653.9,71.4 652.8,70.3 654.9,68.2 659.9,68.2 666.7,61.6 667.7,62.6 660.6,69.7 655.5,69.7 		"/>
		<polygon class="st4" points="655.5,66.1 653,63.6 648.6,63.6 648.6,62.1 653.7,62.1 655.5,63.9 657.4,62.1 659.9,62.1 662.6,64.8 
			661.6,65.9 659.2,63.6 658,63.6 		"/>
		
			<rect x="664.8" y="66.5" transform="matrix(0.7071 -0.7071 0.7071 0.7071 146.2602 490.754)" class="st4" width="1.5" height="4.6"/>
		<polygon class="st4" points="665.7,77.3 664.7,76.3 666.1,74.8 664.7,73.4 665.7,72.3 668.2,74.8 		"/>
		<polygon class="st4" points="655.9,76.6 648.4,69.2 649.5,68.1 655.9,74.5 658.8,71.6 661.3,74.1 667.2,74.1 667.2,75.6 
			660.7,75.6 658.8,73.7 		"/>
		<polygon class="st4" points="668.3,71.6 664.8,71.6 664.8,70.1 666.8,70.1 666.8,68.1 668.3,68.1 		"/>
		<polygon class="st4" points="668.3,64.2 666.8,64.2 666.8,62.2 664.8,62.2 664.8,60.7 668.3,60.7 		"/>
	</g>
</g>
<rect x="587.9" y="125.5" class="st1" width="106.1" height="22"/>
<text transform="matrix(1 0 0 1 600.2019 120.6998)" class="st8 st9">Time series</text>
<g id="Reference_6_">
	<rect id="Blue_Light_BG_3_" x="860.2" y="27.1" class="st10" width="75" height="75"/>
	<g id="Product_Icon_3_">
		<path class="st4" d="M888.8,54.7c-8.8,0-15.5-2.8-15.5-6.5c0-3.7,6.7-6.5,15.5-6.5s15.5,2.8,15.5,6.5
			C904.3,51.9,897.6,54.7,888.8,54.7z M888.8,43.2c-8.2,0-14,2.6-14,5s5.8,5,14,5s14-2.6,14-5C902.8,45.8,897,43.2,888.8,43.2z"/>
		<rect x="902.8" y="48.2" class="st4" width="1.5" height="11.1"/>
		<path class="st4" d="M888.8,87.6c-8.8,0-15.6-2.8-15.6-6.5V48.2h1.5v32.9c0,2.4,5.8,5,14,5s14-2.6,14-5v-7h1.5v7
			C904.3,84.8,897.6,87.6,888.8,87.6z"/>
		<path class="st4" d="M882.3,65.6c-5.7-1.1-9-3.3-9-6h1.5c0,1.8,3.1,3.6,7.8,4.4L882.3,65.6z"/>
		<path class="st4" d="M888.8,77.5c-8.8,0-15.5-2.8-15.5-6.5h1.5c0,2.4,5.7,5,14,5c6.6,0,10.1-1.6,10.2-1.6l0.6,1.4
			C899.4,75.8,895.8,77.5,888.8,77.5z"/>
		<path class="st4" d="M892,70.1h-3.4c-1,0-1.8-0.8-1.8-1.8v-3.4c0-1,0.8-1.8,1.7-1.8l0,0h3.4c1,0,1.8,0.8,1.8,1.8v3.4
			C893.8,69.2,893,70.1,892,70.1L892,70.1z M888.6,64.7c-0.1,0-0.3,0.1-0.2,0.3v3.4c0,0.1,0.1,0.2,0.2,0.2h3.4
			c0.1,0,0.2-0.1,0.2-0.2V65c0-0.1-0.1-0.3-0.2-0.3H888.6z"/>
		<path class="st4" d="M904.9,70.1h-3.4c-1,0-1.8-0.8-1.8-1.8v-3.4c0-1,0.8-1.8,1.7-1.8l0,0h3.4c1,0,1.8,0.8,1.8,1.8v3.4
			C906.7,69.2,905.9,70.1,904.9,70.1L904.9,70.1z M901.5,64.7c-0.1,0-0.3,0.1-0.2,0.3v3.4c0,0.1,0.1,0.2,0.2,0.2h3.4
			c0.1,0,0.2-0.1,0.2-0.2V65c0-0.1-0.1-0.3-0.2-0.3H901.5z"/>
		<path class="st4" d="M917.8,70.1h-3.4c-1,0-1.8-0.8-1.8-1.8v-3.4c0-1,0.8-1.8,1.7-1.8l0,0h3.4c1,0,1.8,0.8,1.8,1.8v3.4
			C919.6,69.2,918.8,70.1,917.8,70.1L917.8,70.1z M914.4,64.7c-0.1,0-0.3,0.1-0.3,0.3v3.4c0,0.1,0.1,0.3,0.3,0.2h3.4
			c0.1,0,0.3-0.1,0.3-0.2V65c0-0.1-0.1-0.3-0.3-0.3H914.4z"/>
		<path class="st4" d="M920.6,72.7h-9.1c-0.9,0-1.5-0.7-1.5-1.5l0,0v-2.4h-0.8v2.4c0,0.8-0.7,1.5-1.5,1.5h-9c-0.8,0-1.5-0.7-1.5-1.5
			v-2.4h-0.8v2.4c0,0.8-0.7,1.5-1.5,1.5h-9.2c-0.8,0-1.5-0.7-1.5-1.5v-9c0-0.8,0.7-1.5,1.5-1.5h9.1c0.8,0,1.5,0.7,1.5,1.5v3h0.8v-3
			c0-0.8,0.7-1.5,1.5-1.5h9.1c0.8,0,1.5,0.7,1.5,1.5l0,0v3h0.8v-3c0-0.8,0.7-1.5,1.5-1.5h9.1c0.8,0,1.5,0.6,1.6,1.5l0,0v9
			C922.2,71.9,921.5,72.6,920.6,72.7C920.7,72.7,920.7,72.7,920.6,72.7z M911.6,67.2v3.9h9.1v-9h-9.1v4.5h-3.9v-4.5h-9v4.5h-3.9
			v-4.5h-9.1v9h9.1v-3.9h3.9v4h9.1v-4H911.6z"/>
	</g>
</g>
<rect x="832" y="123.5" class="st1" width="106.1" height="22"/>
<text transform="matrix(1 0 0 1 867.4333 119.8582)" class="st8 st9">Ledger</text>
<rect x="705.9" y="125.5" class="st1" width="106.1" height="22"/>
<text transform="matrix(1 0 0 1 723.0652 121.3998)" class="st8 st9">Wide column</text>
<rect x="29.5" y="284.9" class="st1" width="96.5" height="76.1"/>
<rect x="479.5" y="157.9" class="st1" width="102.5" height="105.1"/>
<rect x="599.5" y="156.9" class="st1" width="90" height="123"/>
<rect x="700.5" y="155.9" class="st1" width="126.5" height="123"/>
<rect x="842.5" y="157.9" class="st1" width="104.5" height="123"/>
<rect x="382.5" y="158.9" class="st1" width="90" height="98.1"/>
<rect x="263.5" y="158.9" class="st1" width="103.5" height="123"/>
<rect x="140.5" y="157.9" class="st1" width="104.5" height="123"/>
<rect x="13" y="129" width="948" height="2"/>
<rect x="12" y="231" width="948" height="2"/>
<path class="st12" d="M0,0"/>
<rect x="141.5" y="282.9" class="st1" width="107.5" height="100.1"/>
<rect x="123" y="18" width="2" height="391"/>
<rect x="263.7" y="282.9" class="st1" width="94.3" height="99.1"/>
<rect x="378.3" y="282.3" class="st1" width="90" height="98.1"/>
<rect x="476.5" y="282.8" class="st1" width="109.5" height="99.2"/>
<rect x="601.5" y="282.9" class="st1" width="90" height="99.1"/>
<rect x="700.5" y="282.9" class="st1" width="120.5" height="99.1"/>
<rect x="842.5" y="281.9" class="st1" width="110.5" height="123"/>
<rect x="13" y="17" class="st13" width="948" height="391"/>
<rect x="244" y="17" width="2" height="391"/>
<rect x="358" y="17" width="2" height="391"/>
<rect x="842" y="17" width="2" height="391"/>
<rect x="468" y="17" width="2" height="391"/>
<rect x="587" y="17" width="2" height="391"/>
<rect x="710" y="17" width="2" height="391"/>
<rect x="13" y="297" width="948" height="2"/>
<rect x="19.7" y="304" class="st1" width="97" height="84.7"/>
<text transform="matrix(1 0 0 1 19.7483 313.9632)"><tspan x="0" y="0" class="st6 st7">Lift and shift, </tspan><tspan x="0" y="16.8" class="st6 st7">ERP, CRM, </tspan><tspan x="0" y="33.6" class="st6 st7">finance</tspan></text>
<rect x="19.7" y="236" class="st1" width="97" height="54.8"/>
<text transform="matrix(1 0 0 1 19.7483 245.9056)"><tspan x="0" y="0" class="st6 st7">Aurora</tspan><tspan x="0" y="16.8" class="st6 st7">RDS</tspan></text>
<rect x="130.2" y="136.3" class="st1" width="106" height="84.7"/>
<text transform="matrix(1 0 0 1 130.2006 146.2346)"><tspan x="0" y="0" class="st6 st7">High throughput, </tspan><tspan x="0" y="16.8" class="st6 st7">low latency reads </tspan><tspan x="0" y="33.6" class="st6 st7">and writes, end</tspan><tspan x="89.3" y="33.6" class="st6 st7">-</tspan><tspan x="0" y="50.4" class="st6 st7">less scale</tspan></text>
<rect x="133.1" y="237.6" class="st1" width="97" height="54.8"/>
<text transform="matrix(1 0 0 1 133.1006 247.5385)" class="st6 st7">DynamoDB</text>
<rect x="131.1" y="302.4" class="st1" width="111.9" height="101.5"/>
<text transform="matrix(1 0 0 1 131.1006 312.3696)"><tspan x="0" y="0" class="st6 st7">Real time bidding, </tspan><tspan x="0" y="16.8" class="st6 st7">shopping card, </tspan><tspan x="0" y="33.6" class="st6 st7">social, product, </tspan><tspan x="0" y="50.4" class="st6 st7">catalog, customer </tspan><tspan x="0" y="67.2" class="st6 st7">preferences</tspan></text>
<rect x="251.8" y="136.3" class="st1" width="106" height="84.7"/>
<text transform="matrix(1 0 0 1 251.7838 146.2346)"><tspan x="0" y="0" class="st6 st7">Store documents </tspan><tspan x="0" y="16.8" class="st6 st7">and quickly </tspan><tspan x="0" y="33.6" class="st6 st7">access querying </tspan><tspan x="0" y="50.4" class="st6 st7">on any attribute</tspan></text>
<rect x="365" y="136.3" class="st1" width="104" height="84.7"/>
<text transform="matrix(1 0 0 1 365.0003 146.2346)"><tspan x="0" y="0" class="st6 st7">Query by key </tspan><tspan x="0" y="16.8" class="st6 st7">with microsec</tspan><tspan x="81.3" y="16.8" class="st6 st7">-</tspan><tspan x="0" y="33.6" class="st6 st7">ond latency</tspan></text>
<rect x="475.4" y="136.3" class="st1" width="106" height="84.7"/>
<text transform="matrix(1 0 0 1 475.4003 146.2346)"><tspan x="0" y="0" class="st6 st7">Quickly and easily </tspan><tspan x="0" y="16.8" class="st6 st7">create and navi</tspan><tspan x="89.1" y="16.8" class="st6 st7">-</tspan><tspan x="0" y="33.6" class="st6 st7">gate relationships </tspan><tspan x="0" y="50.4" class="st6 st7">between data</tspan></text>
<rect x="600.8" y="134.7" class="st1" width="106" height="84.7"/>
<text transform="matrix(1 0 0 1 600.7985 144.6057)"><tspan x="0" y="0" class="st6 st7">Collect, store, and </tspan><tspan x="0" y="16.8" class="st6 st7">process data </tspan><tspan x="0" y="33.6" class="st6 st7">sequenced by </tspan><tspan x="0" y="50.4" class="st6 st7">time</tspan></text>
<rect x="727" y="134.7" class="st1" width="110" height="84.7"/>
<text transform="matrix(1 0 0 1 726.9503 144.6057)"><tspan x="0" y="0" class="st6 st7">Handle large </tspan><tspan x="0" y="16.8" class="st6 st7">volumes of data </tspan><tspan x="0" y="33.6" class="st6 st7">that require single </tspan><tspan x="0" y="50.4" class="st6 st7">digit latency</tspan></text>
<rect x="852.6" y="134.7" class="st1" width="106" height="84.7"/>
<text transform="matrix(1 0 0 1 852.5731 144.6057)"><tspan x="0" y="0" class="st6 st7">Complete, </tspan><tspan x="0" y="16.8" class="st6 st7">immutable, and </tspan><tspan x="0" y="33.6" class="st6 st7">verifiable history </tspan><tspan x="0" y="50.4" class="st6 st7">of all changes to </tspan><tspan x="0" y="67.2" class="st6 st7">application data</tspan></text>
<rect x="250.9" y="237.4" class="st1" width="97" height="54.8"/>
<text transform="matrix(1 0 0 1 250.8841 247.3841)" class="st6 st7">DocumentDB</text>
<rect x="364" y="236.4" class="st1" width="97" height="54.8"/>
<text transform="matrix(1 0 0 1 364.0006 246.3841)"><tspan x="0" y="0" class="st6 st7">ElastiCache</tspan><tspan x="0" y="16.8" class="st6 st7">MemoryDB</tspan></text>
<rect x="475.5" y="236.4" class="st1" width="97" height="54.8"/>
<text transform="matrix(1 0 0 1 475.5006 246.3841)" class="st6 st7">Neptune</text>
<rect x="595.9" y="237.6" class="st1" width="97" height="54.8"/>
<text transform="matrix(1 0 0 1 595.8988 247.5385)" class="st6 st7">Timestream</text>
<rect x="717.8" y="237.6" class="st1" width="97" height="54.8"/>
<text transform="matrix(1 0 0 1 717.8352 247.5385)" class="st6 st7">Keyspaces</text>
<rect x="849.2" y="236.4" class="st1" width="97" height="54.8"/>
<text transform="matrix(1 0 0 1 849.1734 246.3841)" class="st6 st7">QLDB</text>
<rect x="252.5" y="304" class="st1" width="97" height="84.7"/>
<text transform="matrix(1 0 0 1 252.546 313.9632)"><tspan x="0" y="0" class="st6 st7">Content Man</tspan><tspan x="76.4" y="0" class="st6 st7">-</tspan><tspan x="0" y="16.8" class="st6 st7">agement, per</tspan><tspan x="78.1" y="16.8" class="st6 st7">-</tspan><tspan x="0" y="33.6" class="st6 st7">sonalisation, </tspan><tspan x="0" y="50.4" class="st6 st7">mobile</tspan></text>
<rect x="848.2" y="303.4" class="st1" width="109.4" height="84.7"/>
<text transform="matrix(1 0 0 1 848.1739 313.3228)"><tspan x="0" y="0" class="st6 st7">Systems of record, </tspan><tspan x="0" y="16.8" class="st6 st7">supply chain, </tspan><tspan x="0" y="33.6" class="st6 st7">healthcare, regula</tspan><tspan x="104.9" y="33.6" class="st6 st7">-</tspan><tspan x="0" y="50.4" class="st6 st7">tions, financial</tspan></text>
<rect x="718.3" y="305.2" class="st1" width="118.7" height="84.7"/>
<text transform="matrix(1 0 0 1 718.2512 315.1714)"><tspan x="0" y="0" class="st6 st7">High scale industrial </tspan><tspan x="0" y="16.8" class="st6 st7">apps for equipment </tspan><tspan x="0" y="33.6" class="st6 st7">maintenance, fleet </tspan><tspan x="0" y="50.4" class="st6 st7">management, and </tspan><tspan x="0" y="67.2" class="st6 st7">route optimisations</tspan></text>
<rect x="597.6" y="304" class="st1" width="97" height="84.7"/>
<text transform="matrix(1 0 0 1 597.5833 313.9632)"><tspan x="0" y="0" class="st6 st7">Internet of </tspan><tspan x="0" y="16.8" class="st6 st7">Things applica</tspan><tspan x="84.4" y="16.8" class="st6 st7">-</tspan><tspan x="0" y="33.6" class="st6 st7">tions, event </tspan><tspan x="0" y="50.4" class="st6 st7">tracking</tspan></text>
<rect x="365" y="304" class="st1" width="97" height="84.7"/>
<text transform="matrix(1 0 0 1 365.0007 313.9632)"><tspan x="0" y="0" class="st6 st7">Leaderboards, </tspan><tspan x="0" y="16.8" class="st6 st7">real time analyt</tspan><tspan x="90" y="16.8" class="st6 st7">-</tspan><tspan x="0" y="33.6" class="st6 st7">ics, caching</tspan></text>
<rect x="478.1" y="304" class="st1" width="97" height="84.7"/>
<text transform="matrix(1 0 0 1 478.0734 313.9632)"><tspan x="0" y="0" class="st6 st7">Fraud detection, </tspan><tspan x="0" y="16.8" class="st6 st7">social network</tspan><tspan x="84.3" y="16.8" class="st6 st7">-</tspan><tspan x="0" y="33.6" class="st6 st7">ing, recommen</tspan><tspan x="88.4" y="33.6" class="st6 st7">-</tspan><tspan x="0" y="50.4" class="st6 st7">dation engine</tspan></text>
</svg>
