<?xml version="1.0" encoding="utf-8"?>
<!-- Generator: Adobe Illustrator 24.1.0, SVG Export Plug-In . SVG Version: 6.00 Build 0)  -->
<svg version="1.1" id="Layer_1" xmlns="http://www.w3.org/2000/svg" xmlns:xlink="http://www.w3.org/1999/xlink" x="0px" y="0px"
	 viewBox="0 0 973 431" style="enable-background:new 0 0 973 431;" xml:space="preserve">
<style type="text/css">
	.st0{fill:url(#Green_Gradient_1_);}
	.st1{fill:none;}
	.st2{fill-rule:evenodd;clip-rule:evenodd;fill:#FFFFFF;}
	.st3{fill:url(#Blue_Gradient_3_);}
	.st4{fill:#FFFFFF;}
	.st5{fill:url(#Blue_Gradient_4_);}
	.st6{font-family:'MyriadPro-Regular';}
	.st7{font-size:18px;}
	.st8{fill:#3B48CC;}
	.st9{fill:url(#Blue_Gradient_5_);}
	.st10{font-size:14px;}
	.st11{fill:none;stroke:#000000;stroke-width:2;stroke-miterlimit:10;}
</style>
<g id="Working">
	
		<linearGradient id="Green_Gradient_1_" gradientUnits="userSpaceOnUse" x1="568.4591" y1="993.7665" x2="568.4591" y2="1143.7665" gradientTransform="matrix(0.7071 0.7071 0.7071 -0.7071 -401.6942 436.7716)">
		<stop  offset="0" style="stop-color:#2E27AD"/>
		<stop  offset="1" style="stop-color:#527FFF"/>
	</linearGradient>
	<rect id="Green_Gradient" x="718.5" y="45.5" class="st0" width="75" height="75"/>
	<rect x="729.5" y="55.5" class="st1" width="54" height="56"/>
	<rect x="718.5" y="45.5" class="st1" width="75" height="75"/>
	<g id="Page-1">
		<g id="White">
			<path id="Amazon-Managed-Apache-Service_64_White" class="st2" d="M783.5,71.5l-3.2,0.8l2.5,2.8c-0.2,0.4-0.4,0.7-0.8,0.9
				c-0.3,0.3-0.7,0.4-1,0.5l-2-3.4l-2,3.4c-0.4-0.1-0.7-0.2-1.1-0.4c-0.3-0.2-0.6-0.5-0.8-0.9l2.5-2.8l-3.1-0.8c0-0.1,0-0.3,0-0.4
				c0-0.6,0.3-1.2,0.7-1.7l3,1.5l-0.4-3.6c0.4-0.2,0.8-0.2,1.2-0.2c0.4,0,0.8,0.1,1.2,0.2l-0.4,3.6l3-1.5
				C783.4,69.9,783.7,70.7,783.5,71.5z M768.4,94.8c1.7,0,3.4-0.3,5-0.9v1.9c-1.6,0.7-3.4,1.1-5.1,1.1c-3.2,0-5.6-0.9-7.2-2.7
				c-1.6-1.8-2.5-4.5-2.5-8s0.8-6.2,2.5-8c1.7-1.8,4.1-2.8,7.3-2.8c1.7,0,3.3,0.3,4.8,1v1.9c-1.5-0.5-3.1-0.8-4.7-0.8
				c-2.6,0-4.5,0.7-5.6,2c-1.2,1.3-1.8,3.5-1.8,6.4v0.5c0,2.8,0.6,4.9,1.8,6.3C764.1,94.1,765.9,94.8,768.4,94.8L768.4,94.8z
				 M746.5,55.5c10.8,0,18,3.1,18,6s-7.2,6-18,6s-17-3-17-6S735.9,55.5,746.5,55.5z M764.5,104.5c0,2.9-7.2,6-18,6
				c-8.4,0-17-2.2-17-6V94.4c3,2.6,9.1,4.1,17,4.1c3.8,0,7.6-0.4,11.2-1.3l-0.5-1.9c-3.5,0.8-7.1,1.2-10.8,1.2c-8.4,0-17-2.2-17-6
				V80.3c3,2.6,9.2,4.2,17,4.2c3.8,0,7.6-0.4,11.2-1.3l-0.5-1.9c-3.5,0.8-7.1,1.2-10.8,1.2c-10.6,0-17-3-17-6V65.3
				c3,2.6,9.2,4.2,17,4.2c7.3,0,14.6-1.5,18-4.3v3.3h2v-7c0-5.2-10.1-8-20-8c-11.2,0-19,3.3-19,8v43c0,4.8,7.6,8,19,8
				c9.9,0,20-2.8,20-8v-2h-2V104.5z"/>
		</g>
	</g>
</g>
<g id="Reference">
	
		<linearGradient id="Blue_Gradient_3_" gradientUnits="userSpaceOnUse" x1="993.1191" y1="1257.4774" x2="993.1191" y2="1108.4775" gradientTransform="matrix(-0.7071 -0.7071 -0.7071 0.7071 1611.4841 -51.5016)">
		<stop  offset="0" style="stop-color:#2E27AD"/>
		<stop  offset="1" style="stop-color:#527FFF"/>
	</linearGradient>
	<rect id="Blue_Gradient" x="35.5" y="45.5" class="st3" width="74.5" height="74.5"/>
	<g id="Icon_Test">
		<path class="st4" d="M60.7,74.8c-7.7,0-15.9-2.3-15.9-6.7s8.2-6.7,15.9-6.7s15.9,2.3,15.9,6.7S68.4,74.8,60.7,74.8z M60.7,63.5
			c-7.9,0-13.9,2.5-13.9,4.7s6,4.7,13.9,4.7s13.9-2.5,13.9-4.7S68.6,63.5,60.7,63.5z"/>
		<rect x="74.6" y="68.5" class="st4" width="2" height="16.9"/>
		<path class="st4" d="M60.7,107.1c-7.7,0-15.9-2.3-15.9-6.6v-32h2v32c0,2.2,6,4.6,13.9,4.6s13.9-2.4,13.9-4.6v-3.2h2v3.2
			C76.6,104.8,68.4,107.1,60.7,107.1z"/>
		<path class="st4" d="M60.7,86.1c-7.7,0-15.9-2.3-15.9-6.7h2c0,2.2,6,4.7,13.9,4.7s13.9-2.5,13.9-4.7h2
			C76.6,83.7,68.4,86.1,60.7,86.1z"/>
		<path class="st4" d="M60.8,97c-7.7,0-15.9-2.3-15.9-6.7h2c0,2.2,6,4.7,13.9,4.7c3.3,0,6.5-0.4,9.6-1.4l0.6,1.9
			C67.7,96.5,64.2,97,60.8,97z"/>
		<path class="st4" d="M84,108c-0.5,0-1-0.4-1-1c0-6.8-7.8-14.6-14.7-14.6c-0.5,0-1-0.4-1-1c0-0.5,0.4-1,1-1
			c6.8,0,14.7-7.8,14.7-14.7c0-0.5,0.4-1,1-1c0.5,0,1,0.4,1,1c0,6.8,7.8,14.7,14.7,14.7c0.5,0,1,0.4,1,1c0,0.5-0.4,1-1,1
			c-6.9,0-14.7,7.8-14.7,14.6C85,107.5,84.6,108,84,108z M73.2,91.3c4.9,2.1,8.7,5.9,10.8,10.8c2.1-4.9,5.9-8.7,10.8-10.8
			C90,89.3,86.1,85.4,84,80.5C82,85.4,78.1,89.2,73.2,91.3z"/>
		<rect x="88.6" y="67.5" class="st4" width="2" height="6"/>
		<rect x="86.6" y="69.5" class="st4" width="6" height="2"/>
		<rect x="77.6" y="57.5" class="st4" width="2" height="6"/>
		<rect x="75.6" y="59.5" class="st4" width="6" height="2"/>
	</g>
</g>
<g id="Reference_1_">
	
		<linearGradient id="Blue_Gradient_4_" gradientUnits="userSpaceOnUse" x1="137.97" y1="479.97" x2="244.03" y2="586.03" gradientTransform="matrix(1 0 0 -1 0 616)">
		<stop  offset="0" style="stop-color:#2E27AD"/>
		<stop  offset="1" style="stop-color:#527FFF"/>
	</linearGradient>
	<rect id="Blue_Gradient_1_" x="153.5" y="45.5" class="st5" width="75" height="75"/>
	<g id="Icon_Test_1_">
		<path class="st4" d="M203.8,86l-6.6,6.6c1.2-0.3,2.3-0.8,3.4-1.4c0.6,0.4,1.1,1.1,1.2,1.8c0,1.8-3.9,3.8-9.6,4.6
			c-1.8,0.2-3.6,0.4-5.4,0.4h-1c-8.1-0.2-14-2.7-14-5c0.1-0.7,0.5-1.4,1.2-1.8c3.1,1.8,8.2,2.8,13.8,2.8h0.1l0.6-2
			c-0.2,0-0.4,0-0.7,0c-5.5,0-10.6-1.1-13.3-2.8c-1.1-0.7-1.7-1.5-1.7-2.2v-4.6c3.1,2.3,9.2,3.6,15,3.6c0.8,0,1.6,0,2.4-0.1l0.6-2
			c-1,0.1-1.9,0.1-2.9,0.1c-8.6,0-15-2.6-15-5c0.1-0.7,0.5-1.4,1.2-1.8c2.8,1.6,7,2.5,11.8,2.7l0.1-2c-4.7-0.2-9-1.2-11.4-2.8
			c-1.1-0.7-1.7-1.5-1.7-2.2v-4.6c3.1,2.3,9.2,3.6,15,3.6h0.2l1.1-2h-1.3c-8.6,0-15-2.6-15-5c0-2.4,6.4-5,15-5c2.9,0,5.8,0.3,8.6,1
			h5.5c-3-1.8-8.2-3-14.1-3c-8.2,0-17,2.4-17,7v8c0.1,1.2,0.6,2.2,1.5,3c-0.9,0.7-1.5,1.8-1.5,3v8c0,1.2,0.6,2.3,1.5,3
			c-0.9,0.7-1.5,1.8-1.5,3v8c0,0.1,0,0.1,0,0.2c0.3,4.4,8.9,6.8,17,6.8s16.7-2.4,17-6.8c0-0.1,0-0.1,0-0.2v-8c0-1.2-0.6-2.3-1.5-3
			c0.9-0.7,1.5-1.8,1.5-3V86z M201.8,101c0,2.4-6.4,5-15,5s-15-2.6-15-5v-4.6c3.1,2.3,9.2,3.5,15,3.5s11.9-1.2,15-3.5V101z"/>
		<circle class="st4" cx="174.8" cy="73" r="1.2"/>
		<circle class="st4" cx="174.8" cy="87" r="1.2"/>
		<circle class="st4" cx="174.8" cy="101" r="1.2"/>
		<path class="st4" d="M189.2,97c-0.2,0-0.3-0.1-0.5-0.1c-0.4-0.2-0.6-0.7-0.5-1.1l5.6-18.7h-5.7c-0.6,0-1-0.4-1-1
			c0-0.2,0-0.3,0.1-0.5l6-12c0.2-0.3,0.5-0.5,0.9-0.5h13c0.6,0,1,0.4,1,0.9c0,0.1,0,0.2,0,0.4l-2.6,7.7h5.6c0.6,0,1,0.5,1,1
			c0,0.3-0.1,0.5-0.3,0.7l-22,23C189.8,96.9,189.5,97,189.2,97z M189.9,75h5.4c0.3,0,0.6,0.1,0.8,0.4s0.2,0.6,0.2,0.9l-4.8,16
			L208.9,74h-4.7c-0.6,0-1-0.4-1.1-0.9c0-0.1,0-0.3,0.1-0.4l2.6-7.7h-11L189.9,75z"/>
	</g>
</g>
<rect x="28" y="125" class="st1" width="86" height="22"/>
<text transform="matrix(1 0 0 1 33.7046 137.7798)" class="st6 st7">Relational</text>
<rect x="148.2" y="125.5" class="st1" width="86" height="22"/>
<text transform="matrix(1 0 0 1 154.7178 138.283)" class="st6 st7">Key Value</text>
<g id="Reference_2_">
	<rect id="Blue_Light_BG" x="273.5" y="45.5" class="st8" width="75" height="75"/>
	<g id="Product_Icon">
		<path class="st4" d="M313.6,96.8h-1.3c-0.6,0-1-0.4-1-1V73.5c0-0.6,0.4-1,1-1h11.8c0.3,0,0.6,0.1,0.7,0.3l3,3.6l-1.4,1.3l-2.8-3.2
			h-10.4v20.3h0.3V96.8z"/>
		<path class="st4" d="M331.8,100.4h-16.2c-0.6,0-1-0.4-1-1V77.1c0-0.6,0.4-1,1-1h12.5c0.3,0,0.5,0.1,0.7,0.3l3.7,3.7
			c0.2,0.2,0.3,0.4,0.3,0.7v18.6C332.8,99.9,332.3,100.3,331.8,100.4z M316.6,98.5h14.2V81.2l-3.1-3.1h-11.1V98.5z"/>
		<path class="st4" d="M331.8,82.8h-4.7c-0.6,0-1-0.4-1-1v-4.7h1.9v3.7h3.7L331.8,82.8z"/>
		<path class="st4" d="M322.9,95.2h-0.6c-0.5,0-1-0.2-1.3-0.6c-0.4-0.6-0.5-1.3-0.4-2c-0.1-1.8-1.1-2.1-1.1-2.1
			c-0.5-0.2-0.8-0.8-0.6-1.3c0.1-0.3,0.3-0.5,0.6-0.6c0.1,0,1-0.4,1-2.1c0-1.1,0.5-2.2,1.7-2.3h0.7v1.9h-0.3c0,0.1,0,0.2,0,0.3
			c0.1,1.1-0.3,2.2-1,3.1c0.7,0.9,1.1,2,1,3.1c0,0.1,0,0.1,0,0.2c0,0.1,0,0.3,0,0.4h0.4L322.9,95.2z"/>
		<path class="st4" d="M325.6,95.2v-1.9h0.4c0-0.1,0-0.2,0-0.3c-0.1-1.1,0.3-2.2,1-3.1c-0.7-0.9-1.1-2-1-3.1c0-0.1,0-0.1,0-0.2
			c0-0.1,0-0.3,0-0.4h-0.4v-1.9h0.6c0.5,0,1,0.2,1.3,0.6c0.4,0.6,0.5,1.3,0.4,2c0,1.7,1,2,1,2.1c0.4,0.1,0.7,0.5,0.7,1
			c0,0.4-0.3,0.8-0.7,0.9c-0.1,0-1,0.4-1,2.1c0,1.1-0.5,2.2-1.7,2.2L325.6,95.2z"/>
		<path class="st4" d="M305.7,72.7c-8,0-16.5-2.5-16.5-7c0-4.5,8.5-7,16.5-7c8,0,16.5,2.5,16.5,7C322.2,70.2,313.7,72.7,305.7,72.7z
			 M305.7,60.6c-8.6,0-14.6,2.7-14.6,5.1c0,2.4,6,5.1,14.6,5.1s14.6-2.7,14.6-5.1C320.3,63.3,314.3,60.6,305.7,60.6z"/>
		<rect x="320.3" y="65.7" class="st4" width="1.9" height="6.1"/>
		<path class="st4" d="M305.7,107.3c-8,0-16.5-2.5-16.5-7V65.7h1.9v34.6c0,2.4,6,5.1,14.6,5.1s14.6-2.7,14.6-5.1h1.9
			C322.2,104.9,313.7,107.3,305.7,107.3z"/>
		<path class="st4" d="M305.8,84.8c-9.4,0-16.5-3-16.5-7h1.9c0,2.4,6,5.1,14.5,5.1c1.4,0,2.9-0.1,4.3-0.2l0.2,1.9
			C308.8,84.7,307.3,84.8,305.8,84.8z"/>
		<path class="st4" d="M305.8,96.7c-9.4,0-16.5-3-16.5-7h1.9c0,2.4,6,5.1,14.5,5.1c1.4,0,2.9-0.1,4.3-0.2l0.2,1.9
			C308.8,96.7,307.3,96.7,305.8,96.7z"/>
	</g>
</g>
<rect x="267.9" y="126.5" class="st1" width="86" height="22"/>
<text transform="matrix(1 0 0 1 271.0039 139.283)" class="st6 st7">Document</text>
<g id="Reference_3_">
	<rect id="Blue_Light_BG_1_" x="380.5" y="45.5" class="st8" width="75" height="75"/>
	<g id="Product_Icon_1_">
		<path class="st4" d="M418,72.5c-6.7,0-13.5,1.8-13.5,5.1v22.8c0,3.3,6.8,5.1,13.5,5.1c6.7,0,13.5-1.8,13.5-5.1V77.6
			C431.5,74.2,424.7,72.5,418,72.5z M418,103.5c-7.4,0-11.5-2-11.5-3.1v-4.8c2.5,1.5,7,2.3,11.5,2.3s9-0.8,11.5-2.3v4.8
			C429.5,101.5,425.4,103.5,418,103.5z M418,95.9c-7.4,0-11.5-2-11.5-3.1V88c2.5,1.5,7,2.3,11.5,2.3c4.5,0,9-0.8,11.5-2.3v4.8
			C429.5,93.8,425.4,95.9,418,95.9z M418,88.3c-7.4,0-11.5-2-11.5-3.1v-4.8c2.5,1.5,7,2.3,11.5,2.3c4.5,0,9-0.8,11.5-2.3v4.8
			C429.5,86.2,425.4,88.3,418,88.3z M418,80.7c-7.4,0-11.5-2.1-11.5-3.1s4-3.1,11.5-3.1s11.5,2.1,11.5,3.1S425.4,80.7,418,80.7z"/>
		<path class="st4" d="M442.5,64.7c0.6,0,1-0.4,1-1v-2.2c0-0.6-0.4-1-1-1h-49c-0.6,0-1,0.4-1,1v2.2c0,0.6,0.4,1,1,1
			c1.2,0.1,2.1,1.2,2,2.4c-0.1,1.1-0.9,1.9-2,2c-0.6,0-1,0.4-1,1v17.4c0,0.6,0.4,1,1,1h9v-2h-4v-1h4v-2h-5c-0.6,0-1,0.4-1,1v2h-2V71
			c2.3-0.7,3.5-3.1,2.8-5.3c-0.4-1.4-1.5-2.4-2.8-2.8v-0.3h47v0.3c-2.2,0.7-3.5,3.1-2.8,5.4c0.4,1.3,1.4,2.3,2.8,2.8v15.5h-1v-2
			c0-0.6-0.4-1-1-1h-6v2h5v1h-5v2h9c0.6,0,1-0.4,1-1V70.1c0-0.6-0.4-1-1-1c-1.2-0.1-2.1-1.2-1.9-2.5
			C440.7,65.6,441.5,64.8,442.5,64.7z"/>
		<path class="st4" d="M417.5,70.5v-5c0-0.6-0.4-1-1-1h-7c-0.6,0-1,0.4-1,1v6h2v-5h5v4H417.5z"/>
		<path class="st4" d="M427.5,71.5v-6c0-0.6-0.4-1-1-1h-7c-0.6,0-1,0.4-1,1v5h2v-4h5v5H427.5z"/>
		<path class="st4" d="M433.5,79.5v2h3c0.6,0,1-0.4,1-1v-15c0-0.6-0.4-1-1-1h-7c-0.6,0-1,0.4-1,1v7h2v-6h5v13H433.5z"/>
		<path class="st4" d="M400.5,66.5h5v6h2v-7c0-0.6-0.4-1-1-1h-7c-0.6,0-1,0.4-1,1v15c0,0.6,0.4,1,1,1h3v-2h-2V66.5z"/>
	</g>
</g>
<rect x="369.9" y="125.5" class="st1" width="106.1" height="22"/>
<text transform="matrix(1 0 0 1 382.2278 138.283)" class="st6 st7">In memory</text>
<g id="Reference_4_">
	<rect id="Blue_Light_BG_2_" x="483.5" y="45.5" class="st8" width="75" height="75"/>
	<g id="Product_Icon_2_">
		<path class="st4" d="M528,77.9c0.8,0.4,1.5,1.1,2,1.9V65.2c0-4.7-8.8-7.2-17-7.2c-8.2,0-17,2.5-17,7.2v35.6c0,4.7,8.8,7.2,17,7.2
			c8.2,0,17-2.5,17-7.2V96h-2v4.8c0,2.5-6.2,5.2-15,5.2c-8.8,0-15-2.8-15-5.2v-7.4c3,2.4,9.2,3.7,15,3.7c1.7,0,3.4-0.1,5.1-0.3
			c-0.4-0.6-0.7-1.2-0.9-1.9c-1.4,0.1-2.8,0.2-4.2,0.2c-8.8,0-15-2.8-15-5.2h0v-8.7c3,2.4,9.2,3.7,15,3.7c3,0,6-0.3,8.9-1
			c-0.3-0.6-0.4-1.2-0.4-1.8v-0.1c-2.8,0.7-5.6,1-8.5,1c-8.8,0-15-2.8-15-5.2l0,0v-8.9c3.1,2.4,9.2,3.7,15,3.7
			c5.8,0,11.9-1.3,15-3.7v8.9C528,77.8,528,77.8,528,77.9z M513,70.4c-8.8,0-15-2.8-15-5.2s6.2-5.2,15-5.2c8.8,0,15,2.8,15,5.2
			S521.8,70.4,513,70.4L513,70.4z M543.5,96c-1.4,0-2.5,1.1-2.5,2.5c0,0.2,0,0.4,0.1,0.5l-3.3,2.1c-0.5-0.5-1.2-0.9-1.9-1l-0.2-4.5
			c2.8-0.7,4.5-3.5,3.8-6.2c-0.2-1-0.8-1.9-1.6-2.6l3.1-5.3c0.3,0.1,0.7,0.2,1,0.2c1.9,0,3.5-1.6,3.5-3.5c0-1.9-1.6-3.5-3.5-3.5
			c-1.9,0-3.5,1.6-3.5,3.5c0,0.8,0.3,1.6,0.8,2.2l-3.2,5.3c-0.5-0.2-1.1-0.3-1.7-0.2c-1,0-2,0.3-2.8,0.8l-3.3-3.4
			c0.1-0.3,0.2-0.6,0.2-1c0-1.4-1.1-2.5-2.5-2.5s-2.5,1.1-2.5,2.5s1.1,2.5,2.5,2.5c0.3,0,0.6-0.1,0.9-0.2l3.3,3.4
			c-0.6,0.9-0.9,1.9-0.9,2.9l0,0l-3.9,0.9c-1.1-1.6-3.3-1.9-4.9-0.8c-1.6,1.1-1.9,3.3-0.8,4.9c1.1,1.6,3.3,1.9,4.9,0.8
			c0.9-0.7,1.5-1.7,1.5-2.9c0,0,0-0.1,0-0.1l3.7-0.8c0.7,1.7,2.2,2.8,4,3.1l0.2,4.4c-2.1,0.6-3.3,2.9-2.7,5s2.9,3.3,5,2.7
			c1.7-0.5,2.9-2.1,2.8-3.8c0-0.4-0.1-0.8-0.2-1.2l3.4-2.1c0.4,0.2,0.8,0.3,1.3,0.3c1.4,0,2.5-1.1,2.5-2.5S544.9,96,543.5,96z
			 M542,76.7c0.8,0,1.5,0.7,1.5,1.5s-0.7,1.5-1.5,1.5s-1.5-0.7-1.5-1.5S541.2,76.7,542,76.7C542,76.7,542,76.7,542,76.7z M526,82.5
			c-0.3,0-0.5-0.2-0.5-0.5s0.2-0.5,0.5-0.5s0.5,0.2,0.5,0.5S526.3,82.5,526,82.5z M522.5,95c-0.8,0-1.5-0.7-1.5-1.5s0.7-1.5,1.5-1.5
			s1.5,0.7,1.5,1.5S523.3,95,522.5,95z M531.2,90.6c0-1.8,1.4-3.2,3.2-3.2c1.8,0,3.2,1.4,3.2,3.2s-1.4,3.2-3.2,3.2l0,0
			C532.6,93.8,531.2,92.4,531.2,90.6z M535,106c-1.1,0-2-0.9-2-2s0.9-2,2-2s2,0.9,2,2S536.1,106,535,106z M543.5,99
			c-0.3,0-0.5-0.2-0.5-0.5s0.2-0.5,0.5-0.5s0.5,0.2,0.5,0.5S543.8,99,543.5,99z"/>
	</g>
</g>
<rect x="466.3" y="126.5" class="st1" width="106.1" height="22"/>
<text transform="matrix(1 0 0 1 496.172 139.283)" class="st6 st7">Graph</text>
<g id="Reference_5_">
	
		<linearGradient id="Blue_Gradient_5_" gradientUnits="userSpaceOnUse" x1="587.96" y1="479.96" x2="694.03" y2="586.03" gradientTransform="matrix(1 0 0 -1 0 616)">
		<stop  offset="0" style="stop-color:#2E27AD"/>
		<stop  offset="1" style="stop-color:#527FFF"/>
	</linearGradient>
	<rect id="Blue_Gradient_2_" x="603.5" y="45.5" class="st9" width="75" height="75"/>
	<g id="Icon_Test_2_">
		<path class="st4" d="M635.2,72.2c-9.3,0-16.6-3-16.6-6.9s7.3-6.9,16.6-6.9s16.6,3,16.6,6.9S644.5,72.2,635.2,72.2z M635.2,59.9
			c-8.9,0-15.1,2.9-15.1,5.4s6.2,5.4,15.1,5.4c8.9,0,15.1-2.9,15.1-5.4S644.1,59.9,635.2,59.9z"/>
		<rect x="650.3" y="65.3" class="st4" width="1.5" height="11.8"/>
		<path class="st4" d="M635.2,107.6c-9.3,0-16.6-3-16.6-6.9V65.3h1.5v35.4c0,2.6,6.2,5.4,15.1,5.4c8.9,0,15.1-2.9,15.1-5.4v-3.4h1.5
			v3.4C651.8,104.6,644.5,107.6,635.2,107.6z"/>
		<path class="st4" d="M635.2,84.6c-9.3,0-16.6-3-16.6-6.9h1.5c0,2.6,6.2,5.4,15.1,5.4c1.5,0,3-0.1,4.4-0.2l0.2,1.5
			C638.3,84.5,636.8,84.6,635.2,84.6z"/>
		<path class="st4" d="M635.2,96.8c-9.3,0-16.6-3.1-16.6-6.9h1.5c0,2.6,6.2,5.4,15.1,5.4c1.5,0,3-0.1,4.4-0.2l0.2,1.5
			C638.3,96.7,636.8,96.8,635.2,96.8z"/>
		<path class="st4" d="M662.3,96.6h-20.4c-0.4,0-0.7-0.3-0.8-0.7c0,0,0,0,0,0V76.3h1.5v18.8h19.6V96.6z"/>
		
			<rect x="643.6" y="90" transform="matrix(0.7071 -0.7071 0.7071 0.7071 124.8295 482.7702)" class="st4" width="3.1" height="1.5"/>
		<polygon class="st4" points="649,88 647.9,86.9 650,84.8 655,84.8 661.8,78.2 662.8,79.2 655.7,86.3 650.6,86.3 		"/>
		<polygon class="st4" points="650.6,82.7 648.1,80.2 643.7,80.2 643.7,78.7 648.8,78.7 650.6,80.5 652.5,78.7 655,78.7 657.7,81.4 
			656.7,82.5 654.3,80.2 653.1,80.2 		"/>
		
			<rect x="659.9" y="83.1" transform="matrix(0.7071 -0.7071 0.7071 0.7071 133.0924 492.1678)" class="st4" width="1.5" height="4.6"/>
		<polygon class="st4" points="660.8,93.9 659.8,92.9 661.2,91.4 659.8,90 660.8,88.9 663.3,91.4 		"/>
		<polygon class="st4" points="651,93.2 643.5,85.8 644.6,84.7 651,91.1 653.9,88.2 656.4,90.7 662.3,90.7 662.3,92.2 655.8,92.2 
			653.9,90.3 		"/>
		<polygon class="st4" points="663.4,88.2 659.9,88.2 659.9,86.7 661.9,86.7 661.9,84.7 663.4,84.7 		"/>
		<polygon class="st4" points="663.4,80.8 661.9,80.8 661.9,78.8 659.9,78.8 659.9,77.3 663.4,77.3 		"/>
	</g>
</g>
<rect x="587.9" y="126.5" class="st1" width="106.1" height="22"/>
<text transform="matrix(1 0 0 1 599.3038 139.283)" class="st6 st7">Time series</text>
<g id="Reference_6_">
	<rect id="Blue_Light_BG_3_" x="850.5" y="44.5" class="st8" width="75" height="75"/>
	<g id="Product_Icon_3_">
		<path class="st4" d="M879.1,72.1c-8.8,0-15.5-2.8-15.5-6.5c0-3.7,6.7-6.5,15.5-6.5s15.5,2.8,15.5,6.5
			C894.6,69.3,887.9,72.1,879.1,72.1z M879.1,60.6c-8.2,0-14,2.6-14,5c0,2.4,5.8,5,14,5s14-2.6,14-5
			C893.1,63.2,887.3,60.6,879.1,60.6z"/>
		<rect x="893.1" y="65.6" class="st4" width="1.5" height="11.1"/>
		<path class="st4" d="M879.1,105c-8.8,0-15.6-2.8-15.6-6.5V65.6h1.5v32.9c0,2.4,5.8,5,14,5s14-2.6,14-5v-7h1.5v7
			C894.6,102.2,887.9,105,879.1,105z"/>
		<path class="st4" d="M872.6,83c-5.7-1.1-9-3.3-9-6h1.5c0,1.8,3.1,3.6,7.8,4.4L872.6,83z"/>
		<path class="st4" d="M879.1,94.9c-8.8,0-15.5-2.8-15.5-6.5h1.5c0,2.4,5.7,5,14,5c6.6,0,10.1-1.6,10.2-1.6l0.6,1.4
			C889.7,93.2,886.1,94.9,879.1,94.9z"/>
		<path class="st4" d="M882.3,87.5h-3.4c-1,0-1.8-0.8-1.8-1.8v-3.4c0-1,0.8-1.8,1.7-1.8c0,0,0,0,0,0h3.4c1,0,1.8,0.8,1.8,1.8v3.4
			C884.1,86.6,883.3,87.5,882.3,87.5C882.3,87.5,882.3,87.5,882.3,87.5z M878.9,82.1c-0.1,0-0.3,0.1-0.2,0.3v3.4
			c0,0.1,0.1,0.2,0.2,0.2h3.4c0.1,0,0.2-0.1,0.2-0.2v-3.4c0-0.1-0.1-0.3-0.2-0.3L878.9,82.1z"/>
		<path class="st4" d="M895.2,87.5h-3.4c-1,0-1.8-0.8-1.8-1.8v-3.4c0-1,0.8-1.8,1.7-1.8c0,0,0,0,0,0h3.4c1,0,1.8,0.8,1.8,1.8v3.4
			C897,86.6,896.2,87.5,895.2,87.5C895.2,87.5,895.2,87.5,895.2,87.5z M891.8,82.1c-0.1,0-0.3,0.1-0.2,0.3v3.4
			c0,0.1,0.1,0.2,0.2,0.2h3.4c0.1,0,0.2-0.1,0.2-0.2v-3.4c0-0.1-0.1-0.3-0.2-0.3L891.8,82.1z"/>
		<path class="st4" d="M908.1,87.5h-3.4c-1,0-1.8-0.8-1.8-1.8v-3.4c0-1,0.8-1.8,1.7-1.8c0,0,0,0,0,0h3.4c1,0,1.8,0.8,1.8,1.8v3.4
			C909.9,86.6,909.1,87.5,908.1,87.5C908.1,87.5,908.1,87.5,908.1,87.5z M904.7,82.1c-0.1,0-0.3,0.1-0.3,0.3v3.4
			c0,0.1,0.1,0.3,0.3,0.2h3.4c0.1,0,0.3-0.1,0.3-0.2v-3.4c0-0.1-0.1-0.3-0.3-0.3L904.7,82.1z"/>
		<path class="st4" d="M910.9,90.1h-9.1c-0.9,0-1.5-0.7-1.5-1.5c0,0,0,0,0,0v-2.4h-0.8v2.4c0,0.8-0.7,1.5-1.5,1.5H889
			c-0.8,0-1.5-0.7-1.5-1.5v-2.4h-0.8v2.4c0,0.8-0.7,1.5-1.5,1.5H876c-0.8,0-1.5-0.7-1.5-1.5v-9c0-0.8,0.7-1.5,1.5-1.5h9.1
			c0.8,0,1.5,0.7,1.5,1.5v3h0.8v-3c0-0.8,0.7-1.5,1.5-1.5h9.1c0.8,0,1.5,0.7,1.5,1.5l0,0v3h0.8v-3c0-0.8,0.7-1.5,1.5-1.5h9.1
			c0.8,0,1.5,0.6,1.6,1.5c0,0,0,0,0,0v9C912.5,89.3,911.8,90,910.9,90.1C911,90.1,911,90.1,910.9,90.1z M901.9,84.6v3.9h9.1v-9h-9.1
			V84H898v-4.5H889V84h-3.9v-4.5H876v9h9.1v-3.9h3.9v4h9.1v-4L901.9,84.6z"/>
	</g>
</g>
<rect x="832" y="124.5" class="st1" width="106.1" height="22"/>
<text transform="matrix(1 0 0 1 858.7606 137.283)" class="st6 st7">Ledger</text>
<rect x="705.9" y="126.5" class="st1" width="106.1" height="22"/>
<text transform="matrix(1 0 0 1 709.2306 139.283)" class="st6 st7">Wide column</text>
<rect x="29" y="159" class="st1" width="98" height="123"/>
<text transform="matrix(1 0 0 1 29 168.9399)"><tspan x="0" y="0" class="st6 st10">Referential </tspan><tspan x="0" y="16.8" class="st6 st10">integrity, ACID </tspan><tspan x="0" y="33.6" class="st6 st10">transactions, </tspan><tspan x="0" y="50.4" class="st6 st10">schema on write</tspan></text>
<rect x="29.5" y="284.9" class="st1" width="96.5" height="76.1"/>
<text transform="matrix(1 0 0 1 29.5032 294.8291)"><tspan x="0" y="0" class="st6 st10">Lift and shift, </tspan><tspan x="0" y="16.8" class="st6 st10">ERP, CRM, </tspan><tspan x="0" y="33.6" class="st6 st10">finance</tspan></text>
<rect x="479.5" y="157.9" class="st1" width="102.5" height="105.1"/>
<text transform="matrix(1 0 0 1 479.5032 167.8291)"><tspan x="0" y="0" class="st6 st10">Quickly and </tspan><tspan x="0" y="16.8" class="st6 st10">easily create and </tspan><tspan x="0" y="33.6" class="st6 st10">navigate rela</tspan><tspan x="75.4" y="33.6" class="st6 st10">-</tspan><tspan x="0" y="50.4" class="st6 st10">tionships </tspan><tspan x="0" y="67.2" class="st6 st10">between data</tspan></text>
<rect x="599.5" y="156.9" class="st1" width="90" height="123"/>
<text transform="matrix(1 0 0 1 599.5032 166.8291)"><tspan x="0" y="0" class="st6 st10">Collect, store, </tspan><tspan x="0" y="16.8" class="st6 st10">and process </tspan><tspan x="0" y="33.6" class="st6 st10">data </tspan><tspan x="0" y="50.4" class="st6 st10">sequenced by </tspan><tspan x="0" y="67.2" class="st6 st10">time</tspan></text>
<rect x="700.5" y="155.9" class="st1" width="126.5" height="123"/>
<text transform="matrix(1 0 0 1 700.5032 165.8291)"><tspan x="0" y="0" class="st6 st10">Handle large </tspan><tspan x="0" y="16.8" class="st6 st10">volumes of data that </tspan><tspan x="0" y="33.6" class="st6 st10">require single digit </tspan><tspan x="0" y="50.4" class="st6 st10">latency</tspan></text>
<rect x="842.5" y="157.9" class="st1" width="104.5" height="123"/>
<text transform="matrix(1 0 0 1 842.5032 167.8291)"><tspan x="0" y="0" class="st6 st10">Complete, </tspan><tspan x="0" y="16.8" class="st6 st10">immutable, and </tspan><tspan x="0" y="33.6" class="st6 st10">verifiable history </tspan><tspan x="0" y="50.4" class="st6 st10">of all changes to </tspan><tspan x="0" y="67.2" class="st6 st10">application data</tspan></text>
<rect x="382.5" y="158.9" class="st1" width="90" height="98.1"/>
<text transform="matrix(1 0 0 1 382.5032 168.8291)"><tspan x="0" y="0" class="st6 st10">Query by key </tspan><tspan x="0" y="16.8" class="st6 st10">with </tspan><tspan x="0" y="33.6" class="st6 st10">microsecond </tspan><tspan x="0" y="50.4" class="st6 st10">latency</tspan></text>
<rect x="263.5" y="158.9" class="st1" width="103.5" height="123"/>
<text transform="matrix(1 0 0 1 263.5032 168.8291)"><tspan x="0" y="0" class="st6 st10">Store documents </tspan><tspan x="0" y="16.8" class="st6 st10">and quickly </tspan><tspan x="0" y="33.6" class="st6 st10">access querying </tspan><tspan x="0" y="50.4" class="st6 st10">on any attribute</tspan></text>
<rect x="140.5" y="157.9" class="st1" width="104.5" height="123"/>
<text transform="matrix(1 0 0 1 140.5032 167.8291)"><tspan x="0" y="0" class="st6 st10">High throughput, </tspan><tspan x="0" y="16.8" class="st6 st10">low latency reads </tspan><tspan x="0" y="33.6" class="st6 st10">and writes, end</tspan><tspan x="89.3" y="33.6" class="st6 st10">-</tspan><tspan x="0" y="50.4" class="st6 st10">less scale</tspan></text>
<rect x="13" y="147" width="948" height="2"/>
<rect x="12" y="272" width="948" height="2"/>
<path d="Mnan,nancnan,nan,nan,nan,nan,nancnan,nan,nan,nan,nan,nancnan,nan,nan,nan,nan,nancnan,nan,nan,nan,nan,nanz"/>
<rect x="141.5" y="282.9" class="st1" width="107.5" height="100.1"/>
<text transform="matrix(1 0 0 1 141.5001 292.8291)"><tspan x="0" y="0" class="st6 st10">Real time bidding, </tspan><tspan x="0" y="16.8" class="st6 st10">shopping cart, </tspan><tspan x="0" y="33.6" class="st6 st10">social, product </tspan><tspan x="0" y="50.4" class="st6 st10">catalog, customer </tspan><tspan x="0" y="67.2" class="st6 st10">preferences</tspan></text>
<rect x="131" y="18" width="2" height="391"/>
<rect x="263.7" y="282.9" class="st1" width="94.3" height="99.1"/>
<text transform="matrix(1 0 0 1 263.6838 292.8291)"><tspan x="0" y="0" class="st6 st10">Content </tspan><tspan x="0" y="16.8" class="st6 st10">Management, </tspan><tspan x="0" y="33.6" class="st6 st10">personalisation, </tspan><tspan x="0" y="50.4" class="st6 st10">mobile</tspan></text>
<rect x="378.3" y="282.3" class="st1" width="90" height="98.1"/>
<text transform="matrix(1 0 0 1 378.2869 292.2737)"><tspan x="0" y="0" class="st6 st10">Leaderboards, </tspan><tspan x="0" y="16.8" class="st6 st10">real time </tspan><tspan x="0" y="33.6" class="st6 st10">analytics, </tspan><tspan x="0" y="50.4" class="st6 st10">caching</tspan></text>
<rect x="476.5" y="282.8" class="st1" width="109.5" height="99.2"/>
<text transform="matrix(1 0 0 1 476.4543 292.7737)"><tspan x="0" y="0" class="st6 st10">Fraud detection, </tspan><tspan x="0" y="16.8" class="st6 st10">social networking, </tspan><tspan x="0" y="33.6" class="st6 st10">recommendation </tspan><tspan x="0" y="50.4" class="st6 st10">engine</tspan></text>
<rect x="601.5" y="282.9" class="st1" width="90" height="99.1"/>
<text transform="matrix(1 0 0 1 601.5001 292.8291)"><tspan x="0" y="0" class="st6 st10">Internet of </tspan><tspan x="0" y="16.8" class="st6 st10">Things </tspan><tspan x="0" y="33.6" class="st6 st10">applications, </tspan><tspan x="0" y="50.4" class="st6 st10">event tracking</tspan></text>
<rect x="700.5" y="282.9" class="st1" width="120.5" height="99.1"/>
<text transform="matrix(1 0 0 1 700.5001 292.8291)"><tspan x="0" y="0" class="st6 st10">High scale industrial </tspan><tspan x="0" y="16.8" class="st6 st10">apps for equipment </tspan><tspan x="0" y="33.6" class="st6 st10">maintenance, fleet </tspan><tspan x="0" y="50.4" class="st6 st10">management, and </tspan><tspan x="0" y="67.2" class="st6 st10">route optimization</tspan></text>
<rect x="842.5" y="281.9" class="st1" width="110.5" height="123"/>
<text transform="matrix(1 0 0 1 842.4573 291.8291)"><tspan x="0" y="0" class="st6 st10">Systems of record, </tspan><tspan x="0" y="16.8" class="st6 st10">supply chain, </tspan><tspan x="0" y="33.6" class="st6 st10">healthcare, </tspan><tspan x="0" y="50.4" class="st6 st10">registrations, </tspan><tspan x="0" y="67.2" class="st6 st10">financial</tspan></text>
<rect x="13" y="18" class="st11" width="948" height="391"/>
<rect x="254" y="18" width="2" height="391"/>
<rect x="369" y="18" width="2" height="391"/>
<rect x="831" y="18" width="2" height="391"/>
<rect x="468" y="18" width="2" height="391"/>
<rect x="587" y="18" width="2" height="391"/>
<rect x="691" y="18" width="2" height="391"/>
</svg>
