<?xml version="1.0" encoding="utf-8"?>
<!-- Generator: Adobe Illustrator 24.0.3, SVG Export Plug-In . SVG Version: 6.00 Build 0)  -->
<svg version="1.1" id="Layer_1" xmlns="http://www.w3.org/2000/svg" xmlns:xlink="http://www.w3.org/1999/xlink" x="0px" y="0px"
	 viewBox="0 0 1024 501" style="enable-background:new 0 0 1024 501;" xml:space="preserve">
<style type="text/css">
	.st0{fill:none;}
	.st1{font-family:'BradleyHandITCTT-Bold';}
	.st2{font-size:117.4599px;}
	.st3{font-size:58.7299px;}
	.st4{fill:none;stroke:#000000;stroke-width:6;stroke-miterlimit:10;}
	.st5{stroke:#000000;stroke-width:4;stroke-miterlimit:10;}
</style>
<rect x="136.4" y="33" class="st0" width="811.6" height="127.2"/>
<text transform="matrix(1.0322 0 0 1 164.3979 110.0527)" class="st1 st2">QLDB Guide</text>
<rect x="78.4" y="398.4" class="st0" width="907.6" height="81.6"/>
<text transform="matrix(1.0322 0 0 1 78.4121 436.957)" class="st1 st3">An open guide to Amazon QLDB</text>
<g>
	<path d="M218.2,308H207v-5.6h11.2c3.1,0,5.6-2.5,5.6-5.6v-58.7h-22.3c-6.2,0-11.2-5-11.2-11.2v-19.6v-5.6H140
		c-3.1,0-5.6,2.5-5.6,5.6h-5.6c0-6.2,5-11.2,11.2-11.2c0,0,21.5,0,41.9,0c0.5,0,1,0,1.5,0c1,0,1.9,0,2.9,0h7.8l34.5,37.1l-0.2,1l1,1
		v8.4v53.1C229.4,303,224.4,308,218.2,308z M195.8,206.5V227c0,3.1,2.5,5.6,5.6,5.6h18.9L195.8,206.5z M155.4,213c1,0,1.9,0,2.9,0
		h7.8l34.5,37.1l-0.2,1l1,1v1.2v7.1v53.1c0,6.2-5,11.2-11.2,11.2H112c-6.2,0-11.2-5-11.2-11.2v-89.4c0-6.2,5-11.2,11.2-11.2
		c0,0,21.5,0,41.9,0C154.4,213,154.9,213,155.4,213z M167.9,223.3v20.5c0,3.1,2.5,5.6,5.6,5.6h18.9L167.9,223.3z M106.5,224.2v89.4
		c0,3.1,2.5,5.6,5.6,5.6h78.2c3.1,0,5.6-2.5,5.6-5.6v-58.7h-22.3c-6.2,0-11.2-5-11.2-11.2v-25.1H112
		C109,218.6,106.5,221.1,106.5,224.2z M120.4,257.7h27.9v5.6h-27.9V257.7z M120.4,241h27.9v5.6h-27.9V241z M181.9,280.1h-61.5v-5.6
		h61.5L181.9,280.1L181.9,280.1z M181.9,296.8h-61.5v-5.6h61.5L181.9,296.8L181.9,296.8z"/>
</g>
<g>
	<path d="M360.2,325.3h-4.8v-7.5c0-7.3-7.5-13.1-16.9-13.1s-16.9,5.8-16.9,13.1v7.5h-4.8v-7.5c0-9.3,9.6-16.8,21.7-16.8
		s21.7,7.5,21.7,16.8V325.3z"/>
	<path d="M357.8,357h-38.5c-4.1,0-7.2-2.4-7.2-5.6V329c0-3.2,3.1-5.6,7.2-5.6h38.5c4.1,0,7.2,2.4,7.2,5.6v22.4
		C365,354.6,361.9,357,357.8,357z M319.2,327.1c-1.4,0-2.4,0.7-2.4,1.9v22.4c0,1.1,1,1.9,2.4,1.9h38.5c1.4,0,2.4-0.7,2.4-1.9V329
		c0-1.1-1-1.9-2.4-1.9H319.2z"/>
	<ellipse cx="338.5" cy="334.6" rx="4.8" ry="3.7"/>
	<path d="M339.7,334.6h-2.4l-2.4,11.2h7.2L339.7,334.6z"/>
</g>
<rect x="43" y="159.6" class="st4" width="242.5" height="196.4"/>
<g>
	<path d="M562.9,307.2h-11.2v-5.6h11.2c3.1,0,5.6-2.5,5.6-5.6v-58.7h-22.3c-6.2,0-11.2-5-11.2-11.2v-19.6V201h-50.3
		c-3.1,0-5.6,2.5-5.6,5.6h-5.6c0-6.2,5-11.2,11.2-11.2c0,0,21.5,0,41.9,0c0.5,0,1,0,1.5,0c1,0,1.9,0,2.9,0h7.8l34.5,37.1l-0.2,1l1,1
		v8.4V296C574.1,302.2,569.1,307.2,562.9,307.2z M540.6,205.7v20.5c0,3.1,2.5,5.6,5.6,5.6H565L540.6,205.7z M500.2,212.2
		c1,0,1.9,0,2.9,0h7.8l34.5,37.1l-0.2,1l1,1v1.2v7.1v53.1c0,6.2-5,11.2-11.2,11.2h-78.2c-6.2,0-11.2-5-11.2-11.2v-89.4
		c0-6.2,5-11.2,11.2-11.2c0,0,21.5,0,41.9,0C499.2,212.2,499.7,212.2,500.2,212.2z M512.7,222.4V243c0,3.1,2.5,5.6,5.6,5.6h18.9
		L512.7,222.4z M451.2,223.4v89.4c0,3.1,2.5,5.6,5.6,5.6H535c3.1,0,5.6-2.5,5.6-5.6v-58.7h-22.3c-6.2,0-11.2-5-11.2-11.2v-25.1
		h-50.3C453.7,217.8,451.2,220.3,451.2,223.4z M465.2,256.9h27.9v5.6h-27.9V256.9z M465.2,240.2h27.9v5.6h-27.9V240.2z M526.6,279.3
		h-61.5v-5.6h61.5V279.3L526.6,279.3z M526.6,296h-61.5v-5.6h61.5V296L526.6,296z"/>
</g>
<rect x="387.8" y="158.8" class="st4" width="242.5" height="196.4"/>
<g>
	<path d="M906.9,307.2h-11.2v-5.6h11.2c3.1,0,5.6-2.5,5.6-5.6v-58.7h-22.3c-6.2,0-11.2-5-11.2-11.2v-19.6V201h-50.3
		c-3.1,0-5.6,2.5-5.6,5.6h-5.6c0-6.2,5-11.2,11.2-11.2c0,0,21.5,0,41.9,0c0.5,0,1,0,1.5,0c1,0,1.9,0,2.9,0h7.8l34.5,37.1l-0.2,1l1,1
		v8.4V296C918.1,302.2,913.1,307.2,906.9,307.2z M884.6,205.7v20.5c0,3.1,2.5,5.6,5.6,5.6H909L884.6,205.7z M844.2,212.2
		c1,0,1.9,0,2.9,0h7.8l34.5,37.1l-0.2,1l1,1v1.2v7.1v53.1c0,6.2-5,11.2-11.2,11.2h-78.2c-6.2,0-11.2-5-11.2-11.2v-89.4
		c0-6.2,5-11.2,11.2-11.2c0,0,21.5,0,41.9,0C843.2,212.2,843.7,212.2,844.2,212.2z M856.7,222.4V243c0,3.1,2.5,5.6,5.6,5.6h18.9
		L856.7,222.4z M795.2,223.4v89.4c0,3.1,2.5,5.6,5.6,5.6H879c3.1,0,5.6-2.5,5.6-5.6v-58.7h-22.3c-6.2,0-11.2-5-11.2-11.2v-25.1
		h-50.3C797.7,217.8,795.2,220.3,795.2,223.4z M809.2,256.9h27.9v5.6h-27.9V256.9z M809.2,240.2h27.9v5.6h-27.9V240.2z M870.6,279.3
		h-61.5v-5.6h61.5V279.3L870.6,279.3z M870.6,296h-61.5v-5.6h61.5V296L870.6,296z"/>
</g>
<rect x="731.8" y="158.8" class="st4" width="242.5" height="196.4"/>
<g>
	<path d="M708.7,324.3h-4.8v-7.5c0-7.3-7.5-13.1-16.9-13.1s-16.9,5.8-16.9,13.1v7.5h-4.8v-7.5c0-9.3,9.6-16.8,21.7-16.8
		s21.7,7.5,21.7,16.8V324.3z"/>
	<path d="M706.3,356h-38.5c-4.1,0-7.2-2.4-7.2-5.6V328c0-3.2,3.1-5.6,7.2-5.6h38.5c4.1,0,7.2,2.4,7.2,5.6v22.4
		C713.5,353.6,710.4,356,706.3,356z M667.7,326.1c-1.4,0-2.4,0.7-2.4,1.9v22.4c0,1.1,1,1.9,2.4,1.9h38.5c1.4,0,2.4-0.7,2.4-1.9V328
		c0-1.1-1-1.9-2.4-1.9H667.7z"/>
	<ellipse cx="687" cy="333.6" rx="4.8" ry="3.7"/>
	<path d="M688.2,333.6h-2.4l-2.4,11.2h7.2L688.2,333.6z"/>
</g>
<rect x="288.5" y="245.7" class="st5" width="94.3" height="6.4"/>
<rect x="631.4" y="246.8" class="st5" width="96.1" height="6.4"/>
</svg>
